<svg id="Layer_1" data-name="Layer 1" width="100px" height="28px" enable-background="new 0 0 48 48" xmlns="http://www.w3.org/2000/svg" viewBox="0 0 200 39"><defs><style>.cls-1{fill:#1800ff;}</style></defs><path class="cls-1" d="M16.1456,38.8748c-5.1732,0-10.2865-2.4913-15.2-7.4043l4.5662-4.5662c7.316,7.316,13.9509,7.316,21.2668,0l4.5662,4.5662C26.4322,36.3835,21.3189,38.8748,16.1456,38.8748ZM25.833.1252h6.4583V6.5835H25.833ZM12.9165,9.8126h6.4583V22.7291H12.9165ZM0,.1252H6.4583V6.5835H0Z"/><path class="cls-1" d="M72.3482,14.5046a4.7618,4.7618,0,0,0-1.5846-3.5579,6.2107,6.2107,0,0,0-4.4593-1.5113,6.5735,6.5735,0,0,0-3.85,1A3.1455,3.1455,0,0,0,61.04,13.14a3.5876,3.5876,0,0,0,.3421,1.5846,3.2242,3.2242,0,0,0,1.194,1.2673,9.1681,9.1681,0,0,0,2.242,1,29.4671,29.4671,0,0,0,3.5332.827A18.0634,18.0634,0,0,1,76.54,21.085q2.8261,2.2906,2.8271,6.7748v.5851a10.5427,10.5427,0,0,1-.8538,4.3135,9.0848,9.0848,0,0,1-2.4612,3.29,11.2144,11.2144,0,0,1-3.899,2.0963,18.8,18.8,0,0,1-11.0884-.22A11.8543,11.8543,0,0,1,56.8,35.293a11.1036,11.1036,0,0,1-2.5831-3.9486,13.5836,13.5836,0,0,1-.8776-4.9463V24.9365h6.4346v1.1681a6.7148,6.7148,0,0,0,1.779,4.8986q1.7775,1.83,5.5313,1.8286a6.348,6.348,0,0,0,4.3383-1.2673,3.9277,3.9277,0,0,0,1.4131-3.0225,4.3578,4.3578,0,0,0-.2925-1.5846,3.3711,3.3711,0,0,0-1.0234-1.3645,7.1523,7.1523,0,0,0-1.9981-1.0967,17.6519,17.6519,0,0,0-3.2168-.827,32.546,32.546,0,0,1-4.7281-1.1463,13.1244,13.1244,0,0,1-3.7285-1.8762,8.0747,8.0747,0,0,1-2.4612-2.9253,9.5054,9.5054,0,0,1-.8776-4.2878V13.14a8.8619,8.8619,0,0,1,.8528-3.8752A9.3944,9.3944,0,0,1,57.7505,6.171a10.9836,10.9836,0,0,1,3.7037-2.0467,15.1084,15.1084,0,0,1,4.85-.7318,15.6368,15.6368,0,0,1,5.3617.8528A11.5467,11.5467,0,0,1,75.5888,6.56a9.6868,9.6868,0,0,1,2.3889,3.3636,10.1679,10.1679,0,0,1,.8042,3.9962v1.7552H72.3482Z"/><path class="cls-1" d="M102.1287,30.8823H90.5277l-1.657,7.31H82.1445l8.14-34.1178h12.0869l8.14,34.1178h-6.7262ZM91.8931,24.74h8.8215L96.767,7.2915h-.8776Z"/><path class="cls-1" d="M132.0063,14.5046a4.7618,4.7618,0,0,0-1.5846-3.5579,6.2107,6.2107,0,0,0-4.4593-1.5113,6.5735,6.5735,0,0,0-3.85,1,3.1453,3.1453,0,0,0-1.4141,2.7051,3.5876,3.5876,0,0,0,.3421,1.5846,3.2242,3.2242,0,0,0,1.194,1.2673,9.1681,9.1681,0,0,0,2.242,1,29.4624,29.4624,0,0,0,3.5332.827,18.0634,18.0634,0,0,1,8.1888,3.2664q2.8277,2.2906,2.8251,6.7748v.5851a10.4937,10.4937,0,0,1-.8528,4.3135,9.0822,9.0822,0,0,1-2.46,3.29,11.2144,11.2144,0,0,1-3.899,2.0963,18.8,18.8,0,0,1-11.0884-.22,11.8543,11.8543,0,0,1-4.265-2.6318,11.1023,11.1023,0,0,1-2.5831-3.9486,13.5836,13.5836,0,0,1-.8776-4.9463V24.9365h6.4346v1.1681a6.7148,6.7148,0,0,0,1.779,4.8986q1.7775,1.83,5.5313,1.8286a6.348,6.348,0,0,0,4.3383-1.2673,3.9277,3.9277,0,0,0,1.4131-3.0225,4.3578,4.3578,0,0,0-.2925-1.5846,3.3711,3.3711,0,0,0-1.0234-1.3645,7.1523,7.1523,0,0,0-1.9981-1.0967,17.6519,17.6519,0,0,0-3.2168-.827,32.546,32.546,0,0,1-4.7281-1.1463,13.1244,13.1244,0,0,1-3.7285-1.8762,8.0747,8.0747,0,0,1-2.4612-2.9253,9.5054,9.5054,0,0,1-.8776-4.2878V13.14a8.8619,8.8619,0,0,1,.8528-3.8752,9.3944,9.3944,0,0,1,2.3888-3.0939,10.9836,10.9836,0,0,1,3.7037-2.0467,15.1084,15.1084,0,0,1,4.85-.7318,15.6372,15.6372,0,0,1,5.3617.8528A11.5467,11.5467,0,0,1,135.2469,6.56a9.6708,9.6708,0,0,1,2.3879,3.3636A10.1688,10.1688,0,0,1,138.44,13.92v1.7552h-6.4337Z"/><path class="cls-1" d="M144.0446,4.0747h6.4337v13.94h11.0149V4.0747h6.4337V38.1925h-6.4337V24.1551H150.4783V38.1925h-6.4337Z"/><path class="cls-1" d="M191.6168,30.8823h-11.6l-1.658,7.31h-6.7252l8.1392-34.1178h12.0879L200,38.1925h-6.7272ZM181.3813,24.74h8.8215L186.2541,7.2915h-.8766Z"/></svg>