<?xml version="1.0" encoding="utf-8"?>
<!-- Generator: Adobe Illustrator 26.2.1, SVG Export Plug-In . SVG Version: 6.00 Build 0)  -->
<svg version="1.1" id="Layer_1" xmlns="http://www.w3.org/2000/svg" xmlns:xlink="http://www.w3.org/1999/xlink" x="0px" y="0px"
	 viewBox="0 0 150 150" style="enable-background:new 0 0 150 150;" xml:space="preserve">
<style type="text/css">
	.st0{fill:#1800FF;}
	.st1{fill:#26FF00;}
	.st2{fill:#00FF0C;}
</style>
<rect x="0" y="0" class="st0" width="150" height="150"/>
<path class="st1" d="M21.9,36.3c-0.9,5.2,0.5,10.6,3.9,14.6c2.4,2.8,5.6,4.8,9.2,5.7v32.1c0,21.9,17.8,39.7,39.7,39.7h0.7
	c21.9,0,39.7-17.8,39.7-39.7V56.6c3.6-0.9,6.8-2.9,9.2-5.7c3.4-4,4.8-9.4,3.9-14.6c-1.2-7.2-7.2-13.1-14.4-14.4
	c-5.2-0.9-10.6,0.5-14.6,3.9c-2.8,2.4-4.8,5.6-5.7,9.2H56.6c-0.9-3.6-2.9-6.8-5.7-9.2c-4-3.4-9.4-4.8-14.6-3.9
	C29.1,23.1,23.1,29.1,21.9,36.3z M75,110.6c-7.1,0-14.2-3.4-20.9-10.2l6.3-6.3c10.1,10.1,19.2,10.1,29.3,0l6.3,6.3
	C89.2,107.2,82.1,110.6,75,110.6z M88.3,57.2h8.9v8.9h-8.9V57.2z M70.6,70.6h8.9v17.8h-8.9V70.6z M52.8,57.2h8.9v8.9h-8.9V57.2z"/>
</svg>
